<mxfile host="app.diagrams.net" agent="Mozilla/5.0 (Windows NT 10.0; Win64; x64) AppleWebKit/537.36 (KHTML, like Gecko) Chrome/129.0.0.0 Safari/537.36" version="24.7.12">
  <diagram id="xYUuz_a5r-64GaqLZ1hu" name="PÃ¡gina-1">
    <mxGraphModel dx="1050" dy="557" grid="1" gridSize="10" guides="1" tooltips="1" connect="1" arrows="1" fold="1" page="1" pageScale="1" pageWidth="827" pageHeight="1169" math="0" shadow="0">
      <root>
        <mxCell id="0" />
        <mxCell id="1" parent="0" />
        <mxCell id="DHCLG3KV0BrQ9XwCqPdC-1" value="Product" style="whiteSpace=wrap;html=1;align=center;" vertex="1" parent="1">
          <mxGeometry x="170" y="320" width="100" height="40" as="geometry" />
        </mxCell>
        <mxCell id="DHCLG3KV0BrQ9XwCqPdC-3" style="edgeStyle=orthogonalEdgeStyle;rounded=0;orthogonalLoop=1;jettySize=auto;html=1;entryX=0;entryY=0.5;entryDx=0;entryDy=0;endArrow=none;endFill=0;exitX=1;exitY=0.5;exitDx=0;exitDy=0;" edge="1" parent="1" source="DHCLG3KV0BrQ9XwCqPdC-2" target="DHCLG3KV0BrQ9XwCqPdC-1">
          <mxGeometry relative="1" as="geometry">
            <Array as="points">
              <mxPoint x="130" y="330" />
              <mxPoint x="170" y="330" />
            </Array>
          </mxGeometry>
        </mxCell>
        <mxCell id="DHCLG3KV0BrQ9XwCqPdC-2" value="Name" style="ellipse;whiteSpace=wrap;html=1;align=center;" vertex="1" parent="1">
          <mxGeometry x="30" y="310" width="100" height="40" as="geometry" />
        </mxCell>
        <mxCell id="DHCLG3KV0BrQ9XwCqPdC-5" style="edgeStyle=orthogonalEdgeStyle;shape=connector;rounded=0;orthogonalLoop=1;jettySize=auto;html=1;strokeColor=default;align=center;verticalAlign=middle;fontFamily=Helvetica;fontSize=11;fontColor=default;labelBackgroundColor=default;endArrow=none;endFill=0;exitX=0.722;exitY=0.885;exitDx=0;exitDy=0;exitPerimeter=0;" edge="1" parent="1" source="DHCLG3KV0BrQ9XwCqPdC-4">
          <mxGeometry relative="1" as="geometry">
            <mxPoint x="172" y="320" as="targetPoint" />
          </mxGeometry>
        </mxCell>
        <mxCell id="DHCLG3KV0BrQ9XwCqPdC-4" value="Description" style="ellipse;whiteSpace=wrap;html=1;align=center;fontFamily=Helvetica;fontSize=11;fontColor=default;labelBackgroundColor=default;" vertex="1" parent="1">
          <mxGeometry x="60" y="260" width="100" height="40" as="geometry" />
        </mxCell>
        <mxCell id="DHCLG3KV0BrQ9XwCqPdC-7" value="ID" style="ellipse;whiteSpace=wrap;html=1;align=center;fontStyle=4;fontFamily=Helvetica;fontSize=11;fontColor=default;labelBackgroundColor=default;" vertex="1" parent="1">
          <mxGeometry x="40" y="370" width="100" height="40" as="geometry" />
        </mxCell>
        <mxCell id="DHCLG3KV0BrQ9XwCqPdC-8" style="edgeStyle=orthogonalEdgeStyle;shape=connector;rounded=0;orthogonalLoop=1;jettySize=auto;html=1;entryX=0.094;entryY=1.065;entryDx=0;entryDy=0;entryPerimeter=0;strokeColor=default;align=center;verticalAlign=middle;fontFamily=Helvetica;fontSize=11;fontColor=default;labelBackgroundColor=default;endArrow=none;endFill=0;" edge="1" parent="1" source="DHCLG3KV0BrQ9XwCqPdC-7" target="DHCLG3KV0BrQ9XwCqPdC-1">
          <mxGeometry relative="1" as="geometry" />
        </mxCell>
        <mxCell id="DHCLG3KV0BrQ9XwCqPdC-10" style="edgeStyle=orthogonalEdgeStyle;shape=connector;rounded=0;orthogonalLoop=1;jettySize=auto;html=1;entryX=0.25;entryY=0;entryDx=0;entryDy=0;strokeColor=default;align=center;verticalAlign=middle;fontFamily=Helvetica;fontSize=11;fontColor=default;labelBackgroundColor=default;endArrow=none;endFill=0;" edge="1" parent="1" source="DHCLG3KV0BrQ9XwCqPdC-9" target="DHCLG3KV0BrQ9XwCqPdC-1">
          <mxGeometry relative="1" as="geometry" />
        </mxCell>
        <mxCell id="DHCLG3KV0BrQ9XwCqPdC-9" value="Price" style="ellipse;whiteSpace=wrap;html=1;align=center;fontFamily=Helvetica;fontSize=11;fontColor=default;labelBackgroundColor=default;" vertex="1" parent="1">
          <mxGeometry x="140" y="220" width="100" height="40" as="geometry" />
        </mxCell>
        <mxCell id="DHCLG3KV0BrQ9XwCqPdC-12" value="Brand" style="whiteSpace=wrap;html=1;align=center;fontFamily=Helvetica;fontSize=11;fontColor=default;labelBackgroundColor=default;" vertex="1" parent="1">
          <mxGeometry x="170" y="570" width="100" height="40" as="geometry" />
        </mxCell>
        <mxCell id="DHCLG3KV0BrQ9XwCqPdC-13" value="ID" style="ellipse;whiteSpace=wrap;html=1;align=center;fontStyle=4;fontFamily=Helvetica;fontSize=11;fontColor=default;labelBackgroundColor=default;" vertex="1" parent="1">
          <mxGeometry x="30" y="570" width="100" height="40" as="geometry" />
        </mxCell>
        <mxCell id="DHCLG3KV0BrQ9XwCqPdC-14" style="edgeStyle=orthogonalEdgeStyle;shape=connector;rounded=0;orthogonalLoop=1;jettySize=auto;html=1;strokeColor=default;align=center;verticalAlign=middle;fontFamily=Helvetica;fontSize=11;fontColor=default;labelBackgroundColor=default;endArrow=none;endFill=0;entryX=0;entryY=0.5;entryDx=0;entryDy=0;" edge="1" parent="1" source="DHCLG3KV0BrQ9XwCqPdC-13" target="DHCLG3KV0BrQ9XwCqPdC-12">
          <mxGeometry relative="1" as="geometry">
            <mxPoint x="160" y="590" as="targetPoint" />
            <Array as="points">
              <mxPoint x="110" y="590" />
            </Array>
          </mxGeometry>
        </mxCell>
        <mxCell id="DHCLG3KV0BrQ9XwCqPdC-16" style="edgeStyle=orthogonalEdgeStyle;shape=connector;rounded=0;orthogonalLoop=1;jettySize=auto;html=1;entryX=0.25;entryY=1;entryDx=0;entryDy=0;strokeColor=default;align=center;verticalAlign=middle;fontFamily=Helvetica;fontSize=11;fontColor=default;labelBackgroundColor=default;endArrow=none;endFill=0;" edge="1" parent="1" source="DHCLG3KV0BrQ9XwCqPdC-15" target="DHCLG3KV0BrQ9XwCqPdC-12">
          <mxGeometry relative="1" as="geometry">
            <Array as="points">
              <mxPoint x="195" y="630" />
            </Array>
          </mxGeometry>
        </mxCell>
        <mxCell id="DHCLG3KV0BrQ9XwCqPdC-15" value="Name" style="ellipse;whiteSpace=wrap;html=1;align=center;fontFamily=Helvetica;fontSize=11;fontColor=default;labelBackgroundColor=default;" vertex="1" parent="1">
          <mxGeometry x="70" y="620" width="100" height="40" as="geometry" />
        </mxCell>
        <mxCell id="DHCLG3KV0BrQ9XwCqPdC-18" value="" style="edgeStyle=orthogonalEdgeStyle;shape=connector;rounded=0;orthogonalLoop=1;jettySize=auto;html=1;strokeColor=default;align=center;verticalAlign=middle;fontFamily=Helvetica;fontSize=11;fontColor=default;labelBackgroundColor=default;endArrow=none;endFill=0;" edge="1" parent="1" source="DHCLG3KV0BrQ9XwCqPdC-17" target="DHCLG3KV0BrQ9XwCqPdC-12">
          <mxGeometry relative="1" as="geometry" />
        </mxCell>
        <mxCell id="DHCLG3KV0BrQ9XwCqPdC-19" value="" style="edgeStyle=orthogonalEdgeStyle;shape=connector;rounded=0;orthogonalLoop=1;jettySize=auto;html=1;strokeColor=default;align=center;verticalAlign=middle;fontFamily=Helvetica;fontSize=11;fontColor=default;labelBackgroundColor=default;endArrow=none;endFill=0;" edge="1" parent="1" source="DHCLG3KV0BrQ9XwCqPdC-17" target="DHCLG3KV0BrQ9XwCqPdC-1">
          <mxGeometry relative="1" as="geometry">
            <Array as="points">
              <mxPoint x="220" y="410" />
              <mxPoint x="220" y="410" />
            </Array>
          </mxGeometry>
        </mxCell>
        <mxCell id="DHCLG3KV0BrQ9XwCqPdC-17" value="Have" style="shape=rhombus;perimeter=rhombusPerimeter;whiteSpace=wrap;html=1;align=center;fontFamily=Helvetica;fontSize=11;fontColor=default;labelBackgroundColor=default;" vertex="1" parent="1">
          <mxGeometry x="160" y="450" width="120" height="60" as="geometry" />
        </mxCell>
        <mxCell id="DHCLG3KV0BrQ9XwCqPdC-20" value="1" style="text;html=1;align=center;verticalAlign=middle;resizable=0;points=[];autosize=1;strokeColor=none;fillColor=none;fontFamily=Helvetica;fontSize=11;fontColor=default;labelBackgroundColor=default;" vertex="1" parent="1">
          <mxGeometry x="225" y="538" width="30" height="30" as="geometry" />
        </mxCell>
        <mxCell id="DHCLG3KV0BrQ9XwCqPdC-21" value="N" style="text;html=1;align=center;verticalAlign=middle;resizable=0;points=[];autosize=1;strokeColor=none;fillColor=none;fontFamily=Helvetica;fontSize=11;fontColor=default;labelBackgroundColor=default;" vertex="1" parent="1">
          <mxGeometry x="225" y="358" width="30" height="30" as="geometry" />
        </mxCell>
        <mxCell id="DHCLG3KV0BrQ9XwCqPdC-29" value="" style="edgeStyle=orthogonalEdgeStyle;shape=connector;rounded=0;orthogonalLoop=1;jettySize=auto;html=1;strokeColor=default;align=center;verticalAlign=middle;fontFamily=Helvetica;fontSize=11;fontColor=default;labelBackgroundColor=default;endArrow=none;endFill=0;entryX=1;entryY=0.5;entryDx=0;entryDy=0;" edge="1" parent="1" source="DHCLG3KV0BrQ9XwCqPdC-22" target="DHCLG3KV0BrQ9XwCqPdC-1">
          <mxGeometry relative="1" as="geometry" />
        </mxCell>
        <mxCell id="DHCLG3KV0BrQ9XwCqPdC-22" value="&lt;div&gt;Belongs&lt;br&gt;&lt;/div&gt;" style="shape=rhombus;perimeter=rhombusPerimeter;whiteSpace=wrap;html=1;align=center;fontFamily=Helvetica;fontSize=11;fontColor=default;labelBackgroundColor=default;" vertex="1" parent="1">
          <mxGeometry x="340" y="310" width="120" height="60" as="geometry" />
        </mxCell>
        <mxCell id="DHCLG3KV0BrQ9XwCqPdC-28" value="" style="edgeStyle=orthogonalEdgeStyle;shape=connector;rounded=0;orthogonalLoop=1;jettySize=auto;html=1;strokeColor=default;align=center;verticalAlign=middle;fontFamily=Helvetica;fontSize=11;fontColor=default;labelBackgroundColor=default;endArrow=none;endFill=0;" edge="1" parent="1" source="DHCLG3KV0BrQ9XwCqPdC-23" target="DHCLG3KV0BrQ9XwCqPdC-22">
          <mxGeometry relative="1" as="geometry" />
        </mxCell>
        <mxCell id="DHCLG3KV0BrQ9XwCqPdC-23" value="Category" style="whiteSpace=wrap;html=1;align=center;fontFamily=Helvetica;fontSize=11;fontColor=default;labelBackgroundColor=default;" vertex="1" parent="1">
          <mxGeometry x="540" y="320" width="100" height="40" as="geometry" />
        </mxCell>
        <mxCell id="DHCLG3KV0BrQ9XwCqPdC-25" value="" style="edgeStyle=orthogonalEdgeStyle;shape=connector;rounded=0;orthogonalLoop=1;jettySize=auto;html=1;strokeColor=default;align=center;verticalAlign=middle;fontFamily=Helvetica;fontSize=11;fontColor=default;labelBackgroundColor=default;endArrow=none;endFill=0;" edge="1" parent="1" source="DHCLG3KV0BrQ9XwCqPdC-24" target="DHCLG3KV0BrQ9XwCqPdC-23">
          <mxGeometry relative="1" as="geometry" />
        </mxCell>
        <mxCell id="DHCLG3KV0BrQ9XwCqPdC-24" value="Name" style="ellipse;whiteSpace=wrap;html=1;align=center;fontFamily=Helvetica;fontSize=11;fontColor=default;labelBackgroundColor=default;" vertex="1" parent="1">
          <mxGeometry x="550" y="220" width="100" height="40" as="geometry" />
        </mxCell>
        <mxCell id="DHCLG3KV0BrQ9XwCqPdC-27" style="edgeStyle=orthogonalEdgeStyle;shape=connector;rounded=0;orthogonalLoop=1;jettySize=auto;html=1;entryX=0.25;entryY=0;entryDx=0;entryDy=0;strokeColor=default;align=center;verticalAlign=middle;fontFamily=Helvetica;fontSize=11;fontColor=default;labelBackgroundColor=default;endArrow=none;endFill=0;" edge="1" parent="1" source="DHCLG3KV0BrQ9XwCqPdC-26" target="DHCLG3KV0BrQ9XwCqPdC-23">
          <mxGeometry relative="1" as="geometry">
            <Array as="points">
              <mxPoint x="575" y="300" />
            </Array>
          </mxGeometry>
        </mxCell>
        <mxCell id="DHCLG3KV0BrQ9XwCqPdC-26" value="ID" style="ellipse;whiteSpace=wrap;html=1;align=center;fontStyle=4;fontFamily=Helvetica;fontSize=11;fontColor=default;labelBackgroundColor=default;" vertex="1" parent="1">
          <mxGeometry x="470" y="250" width="96" height="40" as="geometry" />
        </mxCell>
        <mxCell id="DHCLG3KV0BrQ9XwCqPdC-30" value="1" style="text;html=1;align=center;verticalAlign=middle;resizable=0;points=[];autosize=1;strokeColor=none;fillColor=none;fontFamily=Helvetica;fontSize=11;fontColor=default;labelBackgroundColor=default;" vertex="1" parent="1">
          <mxGeometry x="485" y="308" width="30" height="30" as="geometry" />
        </mxCell>
        <mxCell id="DHCLG3KV0BrQ9XwCqPdC-31" value="N" style="text;html=1;align=center;verticalAlign=middle;resizable=0;points=[];autosize=1;strokeColor=none;fillColor=none;fontFamily=Helvetica;fontSize=11;fontColor=default;labelBackgroundColor=default;" vertex="1" parent="1">
          <mxGeometry x="320" y="315" width="30" height="30" as="geometry" />
        </mxCell>
        <mxCell id="DHCLG3KV0BrQ9XwCqPdC-32" value="Shopping_Carts" style="whiteSpace=wrap;html=1;align=center;fontFamily=Helvetica;fontSize=11;fontColor=default;labelBackgroundColor=default;" vertex="1" parent="1">
          <mxGeometry x="444" y="498" width="100" height="40" as="geometry" />
        </mxCell>
        <mxCell id="DHCLG3KV0BrQ9XwCqPdC-36" value="" style="edgeStyle=orthogonalEdgeStyle;shape=connector;rounded=0;orthogonalLoop=1;jettySize=auto;html=1;strokeColor=default;align=center;verticalAlign=middle;fontFamily=Helvetica;fontSize=11;fontColor=default;labelBackgroundColor=default;endArrow=none;endFill=0;entryX=1;entryY=0.5;entryDx=0;entryDy=0;exitX=0;exitY=0;exitDx=0;exitDy=0;" edge="1" parent="1" source="DHCLG3KV0BrQ9XwCqPdC-35" target="DHCLG3KV0BrQ9XwCqPdC-32">
          <mxGeometry relative="1" as="geometry">
            <Array as="points">
              <mxPoint x="581" y="520" />
              <mxPoint x="554" y="520" />
              <mxPoint x="554" y="518" />
            </Array>
          </mxGeometry>
        </mxCell>
        <mxCell id="DHCLG3KV0BrQ9XwCqPdC-35" value="ID" style="ellipse;whiteSpace=wrap;html=1;align=center;fontStyle=4;fontFamily=Helvetica;fontSize=11;fontColor=default;labelBackgroundColor=default;" vertex="1" parent="1">
          <mxGeometry x="566" y="530" width="100" height="40" as="geometry" />
        </mxCell>
        <mxCell id="DHCLG3KV0BrQ9XwCqPdC-38" value="Client" style="whiteSpace=wrap;html=1;align=center;fontFamily=Helvetica;fontSize=11;fontColor=default;labelBackgroundColor=default;" vertex="1" parent="1">
          <mxGeometry x="450" y="692" width="100" height="40" as="geometry" />
        </mxCell>
        <mxCell id="DHCLG3KV0BrQ9XwCqPdC-42" style="edgeStyle=orthogonalEdgeStyle;shape=connector;rounded=0;orthogonalLoop=1;jettySize=auto;html=1;strokeColor=default;align=center;verticalAlign=middle;fontFamily=Helvetica;fontSize=11;fontColor=default;labelBackgroundColor=default;endArrow=none;endFill=0;" edge="1" parent="1" source="DHCLG3KV0BrQ9XwCqPdC-39" target="DHCLG3KV0BrQ9XwCqPdC-38">
          <mxGeometry relative="1" as="geometry" />
        </mxCell>
        <mxCell id="DHCLG3KV0BrQ9XwCqPdC-39" value="ID" style="ellipse;whiteSpace=wrap;html=1;align=center;fontStyle=4;fontFamily=Helvetica;fontSize=11;fontColor=default;labelBackgroundColor=default;" vertex="1" parent="1">
          <mxGeometry x="570" y="692" width="100" height="40" as="geometry" />
        </mxCell>
        <mxCell id="DHCLG3KV0BrQ9XwCqPdC-41" style="edgeStyle=orthogonalEdgeStyle;shape=connector;rounded=0;orthogonalLoop=1;jettySize=auto;html=1;entryX=0.75;entryY=1;entryDx=0;entryDy=0;strokeColor=default;align=center;verticalAlign=middle;fontFamily=Helvetica;fontSize=11;fontColor=default;labelBackgroundColor=default;endArrow=none;endFill=0;" edge="1" parent="1" source="DHCLG3KV0BrQ9XwCqPdC-40" target="DHCLG3KV0BrQ9XwCqPdC-38">
          <mxGeometry relative="1" as="geometry" />
        </mxCell>
        <mxCell id="DHCLG3KV0BrQ9XwCqPdC-40" value="Full_Name" style="ellipse;whiteSpace=wrap;html=1;align=center;fontFamily=Helvetica;fontSize=11;fontColor=default;labelBackgroundColor=default;" vertex="1" parent="1">
          <mxGeometry x="560" y="742" width="100" height="40" as="geometry" />
        </mxCell>
        <mxCell id="DHCLG3KV0BrQ9XwCqPdC-43" value="Email" style="ellipse;whiteSpace=wrap;html=1;align=center;fontFamily=Helvetica;fontSize=11;fontColor=default;labelBackgroundColor=default;" vertex="1" parent="1">
          <mxGeometry x="435" y="792" width="100" height="40" as="geometry" />
        </mxCell>
        <mxCell id="DHCLG3KV0BrQ9XwCqPdC-44" style="edgeStyle=orthogonalEdgeStyle;shape=connector;rounded=0;orthogonalLoop=1;jettySize=auto;html=1;entryX=0.392;entryY=0.935;entryDx=0;entryDy=0;entryPerimeter=0;strokeColor=default;align=center;verticalAlign=middle;fontFamily=Helvetica;fontSize=11;fontColor=default;labelBackgroundColor=default;endArrow=none;endFill=0;exitX=0.5;exitY=0;exitDx=0;exitDy=0;" edge="1" parent="1" source="DHCLG3KV0BrQ9XwCqPdC-43" target="DHCLG3KV0BrQ9XwCqPdC-38">
          <mxGeometry relative="1" as="geometry">
            <mxPoint x="490" y="782" as="sourcePoint" />
          </mxGeometry>
        </mxCell>
        <mxCell id="DHCLG3KV0BrQ9XwCqPdC-46" style="edgeStyle=orthogonalEdgeStyle;shape=connector;rounded=0;orthogonalLoop=1;jettySize=auto;html=1;entryX=0.75;entryY=1;entryDx=0;entryDy=0;strokeColor=default;align=center;verticalAlign=middle;fontFamily=Helvetica;fontSize=11;fontColor=default;labelBackgroundColor=default;endArrow=none;endFill=0;" edge="1" parent="1" source="DHCLG3KV0BrQ9XwCqPdC-45" target="DHCLG3KV0BrQ9XwCqPdC-38">
          <mxGeometry relative="1" as="geometry">
            <Array as="points">
              <mxPoint x="560" y="772" />
              <mxPoint x="510" y="772" />
              <mxPoint x="510" y="732" />
            </Array>
          </mxGeometry>
        </mxCell>
        <mxCell id="DHCLG3KV0BrQ9XwCqPdC-45" value="Password" style="ellipse;whiteSpace=wrap;html=1;align=center;fontFamily=Helvetica;fontSize=11;fontColor=default;labelBackgroundColor=default;" vertex="1" parent="1">
          <mxGeometry x="550" y="792" width="100" height="40" as="geometry" />
        </mxCell>
        <mxCell id="DHCLG3KV0BrQ9XwCqPdC-49" value="Role" style="whiteSpace=wrap;html=1;align=center;fontFamily=Helvetica;fontSize=11;fontColor=default;labelBackgroundColor=default;" vertex="1" parent="1">
          <mxGeometry x="105" y="692" width="100" height="40" as="geometry" />
        </mxCell>
        <mxCell id="DHCLG3KV0BrQ9XwCqPdC-50" value="ID" style="ellipse;whiteSpace=wrap;html=1;align=center;fontStyle=4;fontFamily=Helvetica;fontSize=11;fontColor=default;labelBackgroundColor=default;" vertex="1" parent="1">
          <mxGeometry x="30" y="752" width="100" height="40" as="geometry" />
        </mxCell>
        <mxCell id="DHCLG3KV0BrQ9XwCqPdC-51" value="Name" style="ellipse;whiteSpace=wrap;html=1;align=center;fontFamily=Helvetica;fontSize=11;fontColor=default;labelBackgroundColor=default;" vertex="1" parent="1">
          <mxGeometry x="145" y="752" width="100" height="40" as="geometry" />
        </mxCell>
        <mxCell id="DHCLG3KV0BrQ9XwCqPdC-53" style="edgeStyle=orthogonalEdgeStyle;shape=connector;rounded=0;orthogonalLoop=1;jettySize=auto;html=1;entryX=0;entryY=0.75;entryDx=0;entryDy=0;strokeColor=default;align=center;verticalAlign=middle;fontFamily=Helvetica;fontSize=11;fontColor=default;labelBackgroundColor=default;endArrow=none;endFill=0;" edge="1" parent="1" source="DHCLG3KV0BrQ9XwCqPdC-50" target="DHCLG3KV0BrQ9XwCqPdC-49">
          <mxGeometry relative="1" as="geometry" />
        </mxCell>
        <mxCell id="DHCLG3KV0BrQ9XwCqPdC-54" style="edgeStyle=orthogonalEdgeStyle;shape=connector;rounded=0;orthogonalLoop=1;jettySize=auto;html=1;strokeColor=default;align=center;verticalAlign=middle;fontFamily=Helvetica;fontSize=11;fontColor=default;labelBackgroundColor=default;endArrow=none;endFill=0;entryX=0.912;entryY=1.015;entryDx=0;entryDy=0;entryPerimeter=0;" edge="1" parent="1" source="DHCLG3KV0BrQ9XwCqPdC-51" target="DHCLG3KV0BrQ9XwCqPdC-49">
          <mxGeometry relative="1" as="geometry">
            <mxPoint x="195" y="742" as="targetPoint" />
          </mxGeometry>
        </mxCell>
        <mxCell id="DHCLG3KV0BrQ9XwCqPdC-56" style="edgeStyle=orthogonalEdgeStyle;shape=connector;rounded=0;orthogonalLoop=1;jettySize=auto;html=1;strokeColor=default;align=center;verticalAlign=middle;fontFamily=Helvetica;fontSize=11;fontColor=default;labelBackgroundColor=default;endArrow=none;endFill=0;entryX=1;entryY=0.5;entryDx=0;entryDy=0;exitX=0;exitY=0.5;exitDx=0;exitDy=0;" edge="1" parent="1" source="DHCLG3KV0BrQ9XwCqPdC-55" target="DHCLG3KV0BrQ9XwCqPdC-49">
          <mxGeometry relative="1" as="geometry">
            <mxPoint x="245" y="712" as="sourcePoint" />
            <mxPoint x="205" y="712" as="targetPoint" />
          </mxGeometry>
        </mxCell>
        <mxCell id="DHCLG3KV0BrQ9XwCqPdC-57" value="" style="edgeStyle=orthogonalEdgeStyle;shape=connector;rounded=0;orthogonalLoop=1;jettySize=auto;html=1;strokeColor=default;align=center;verticalAlign=middle;fontFamily=Helvetica;fontSize=11;fontColor=default;labelBackgroundColor=default;endArrow=none;endFill=0;exitX=1;exitY=0.5;exitDx=0;exitDy=0;" edge="1" parent="1" source="DHCLG3KV0BrQ9XwCqPdC-55" target="DHCLG3KV0BrQ9XwCqPdC-38">
          <mxGeometry relative="1" as="geometry">
            <mxPoint x="410" y="712" as="sourcePoint" />
          </mxGeometry>
        </mxCell>
        <mxCell id="DHCLG3KV0BrQ9XwCqPdC-55" value="Has" style="shape=rhombus;perimeter=rhombusPerimeter;whiteSpace=wrap;html=1;align=center;fontFamily=Helvetica;fontSize=11;fontColor=default;labelBackgroundColor=default;" vertex="1" parent="1">
          <mxGeometry x="270" y="682" width="120" height="60" as="geometry" />
        </mxCell>
        <mxCell id="DHCLG3KV0BrQ9XwCqPdC-58" value="1" style="text;html=1;align=center;verticalAlign=middle;resizable=0;points=[];autosize=1;strokeColor=none;fillColor=none;fontFamily=Helvetica;fontSize=11;fontColor=default;labelBackgroundColor=default;" vertex="1" parent="1">
          <mxGeometry x="205" y="680" width="30" height="30" as="geometry" />
        </mxCell>
        <mxCell id="DHCLG3KV0BrQ9XwCqPdC-59" value="N" style="text;html=1;align=center;verticalAlign=middle;resizable=0;points=[];autosize=1;strokeColor=none;fillColor=none;fontFamily=Helvetica;fontSize=11;fontColor=default;labelBackgroundColor=default;" vertex="1" parent="1">
          <mxGeometry x="415" y="680" width="30" height="30" as="geometry" />
        </mxCell>
        <mxCell id="DHCLG3KV0BrQ9XwCqPdC-67" style="edgeStyle=orthogonalEdgeStyle;shape=connector;rounded=0;orthogonalLoop=1;jettySize=auto;html=1;strokeColor=default;align=center;verticalAlign=middle;fontFamily=Helvetica;fontSize=11;fontColor=default;labelBackgroundColor=default;endArrow=none;endFill=0;" edge="1" parent="1" source="DHCLG3KV0BrQ9XwCqPdC-66" target="DHCLG3KV0BrQ9XwCqPdC-32">
          <mxGeometry relative="1" as="geometry" />
        </mxCell>
        <mxCell id="DHCLG3KV0BrQ9XwCqPdC-66" value="Relationship" style="shape=rhombus;perimeter=rhombusPerimeter;whiteSpace=wrap;html=1;align=center;fontFamily=Helvetica;fontSize=11;fontColor=default;labelBackgroundColor=default;" vertex="1" parent="1">
          <mxGeometry x="430" y="590" width="120" height="60" as="geometry" />
        </mxCell>
        <mxCell id="DHCLG3KV0BrQ9XwCqPdC-69" style="edgeStyle=orthogonalEdgeStyle;shape=connector;rounded=0;orthogonalLoop=1;jettySize=auto;html=1;entryX=0.404;entryY=0.065;entryDx=0;entryDy=0;entryPerimeter=0;strokeColor=default;align=center;verticalAlign=middle;fontFamily=Helvetica;fontSize=11;fontColor=default;labelBackgroundColor=default;endArrow=none;endFill=0;" edge="1" parent="1" source="DHCLG3KV0BrQ9XwCqPdC-66" target="DHCLG3KV0BrQ9XwCqPdC-38">
          <mxGeometry relative="1" as="geometry" />
        </mxCell>
        <mxCell id="DHCLG3KV0BrQ9XwCqPdC-70" value="1" style="text;html=1;align=center;verticalAlign=middle;resizable=0;points=[];autosize=1;strokeColor=none;fillColor=none;fontFamily=Helvetica;fontSize=11;fontColor=default;labelBackgroundColor=default;" vertex="1" parent="1">
          <mxGeometry x="495" y="658" width="30" height="30" as="geometry" />
        </mxCell>
        <mxCell id="DHCLG3KV0BrQ9XwCqPdC-71" value="N" style="text;html=1;align=center;verticalAlign=middle;resizable=0;points=[];autosize=1;strokeColor=none;fillColor=none;fontFamily=Helvetica;fontSize=11;fontColor=default;labelBackgroundColor=default;" vertex="1" parent="1">
          <mxGeometry x="495" y="538" width="30" height="30" as="geometry" />
        </mxCell>
        <mxCell id="DHCLG3KV0BrQ9XwCqPdC-78" value="Date" style="ellipse;whiteSpace=wrap;html=1;align=center;fontFamily=Helvetica;fontSize=11;fontColor=default;labelBackgroundColor=default;" vertex="1" parent="1">
          <mxGeometry x="570" y="470" width="100" height="40" as="geometry" />
        </mxCell>
        <mxCell id="DHCLG3KV0BrQ9XwCqPdC-79" style="edgeStyle=orthogonalEdgeStyle;shape=connector;rounded=0;orthogonalLoop=1;jettySize=auto;html=1;entryX=0.936;entryY=0.115;entryDx=0;entryDy=0;entryPerimeter=0;strokeColor=default;align=center;verticalAlign=middle;fontFamily=Helvetica;fontSize=11;fontColor=default;labelBackgroundColor=default;endArrow=none;endFill=0;" edge="1" parent="1" source="DHCLG3KV0BrQ9XwCqPdC-78" target="DHCLG3KV0BrQ9XwCqPdC-32">
          <mxGeometry relative="1" as="geometry" />
        </mxCell>
        <mxCell id="DHCLG3KV0BrQ9XwCqPdC-81" style="edgeStyle=orthogonalEdgeStyle;shape=connector;rounded=0;orthogonalLoop=1;jettySize=auto;html=1;entryX=1;entryY=1;entryDx=0;entryDy=0;strokeColor=default;align=center;verticalAlign=middle;fontFamily=Helvetica;fontSize=11;fontColor=default;labelBackgroundColor=default;endArrow=none;endFill=0;" edge="1" parent="1" source="DHCLG3KV0BrQ9XwCqPdC-80" target="DHCLG3KV0BrQ9XwCqPdC-1">
          <mxGeometry relative="1" as="geometry" />
        </mxCell>
        <mxCell id="DHCLG3KV0BrQ9XwCqPdC-80" value="Detail" style="shape=rhombus;perimeter=rhombusPerimeter;whiteSpace=wrap;html=1;align=center;fontFamily=Helvetica;fontSize=11;fontColor=default;labelBackgroundColor=default;" vertex="1" parent="1">
          <mxGeometry x="330" y="410" width="120" height="60" as="geometry" />
        </mxCell>
        <mxCell id="DHCLG3KV0BrQ9XwCqPdC-82" style="edgeStyle=orthogonalEdgeStyle;shape=connector;rounded=0;orthogonalLoop=1;jettySize=auto;html=1;entryX=0.592;entryY=-0.045;entryDx=0;entryDy=0;entryPerimeter=0;strokeColor=default;align=center;verticalAlign=middle;fontFamily=Helvetica;fontSize=11;fontColor=default;labelBackgroundColor=default;endArrow=none;endFill=0;" edge="1" parent="1" source="DHCLG3KV0BrQ9XwCqPdC-80" target="DHCLG3KV0BrQ9XwCqPdC-32">
          <mxGeometry relative="1" as="geometry">
            <Array as="points">
              <mxPoint x="503" y="440" />
            </Array>
          </mxGeometry>
        </mxCell>
        <mxCell id="DHCLG3KV0BrQ9XwCqPdC-83" value="N" style="text;html=1;align=center;verticalAlign=middle;resizable=0;points=[];autosize=1;strokeColor=none;fillColor=none;fontFamily=Helvetica;fontSize=11;fontColor=default;labelBackgroundColor=default;" vertex="1" parent="1">
          <mxGeometry x="275" y="358" width="30" height="30" as="geometry" />
        </mxCell>
        <mxCell id="DHCLG3KV0BrQ9XwCqPdC-84" value="M" style="text;html=1;align=center;verticalAlign=middle;resizable=0;points=[];autosize=1;strokeColor=none;fillColor=none;fontFamily=Helvetica;fontSize=11;fontColor=default;labelBackgroundColor=default;" vertex="1" parent="1">
          <mxGeometry x="515" y="468" width="30" height="30" as="geometry" />
        </mxCell>
        <mxCell id="DHCLG3KV0BrQ9XwCqPdC-85" value="Cantidad" style="ellipse;whiteSpace=wrap;html=1;align=center;fontFamily=Helvetica;fontSize=11;fontColor=default;labelBackgroundColor=default;" vertex="1" parent="1">
          <mxGeometry x="305" y="490" width="100" height="40" as="geometry" />
        </mxCell>
        <mxCell id="DHCLG3KV0BrQ9XwCqPdC-86" style="edgeStyle=orthogonalEdgeStyle;shape=connector;rounded=0;orthogonalLoop=1;jettySize=auto;html=1;entryX=0.303;entryY=0.89;entryDx=0;entryDy=0;entryPerimeter=0;strokeColor=default;align=center;verticalAlign=middle;fontFamily=Helvetica;fontSize=11;fontColor=default;labelBackgroundColor=default;endArrow=none;endFill=0;" edge="1" parent="1" source="DHCLG3KV0BrQ9XwCqPdC-85" target="DHCLG3KV0BrQ9XwCqPdC-80">
          <mxGeometry relative="1" as="geometry" />
        </mxCell>
        <mxCell id="DHCLG3KV0BrQ9XwCqPdC-87" value="Carrito_Anonimo" style="whiteSpace=wrap;html=1;align=center;fontFamily=Helvetica;fontSize=11;fontColor=default;labelBackgroundColor=default;" vertex="1" parent="1">
          <mxGeometry x="405" y="70" width="100" height="40" as="geometry" />
        </mxCell>
        <mxCell id="DHCLG3KV0BrQ9XwCqPdC-89" style="edgeStyle=orthogonalEdgeStyle;shape=connector;rounded=0;orthogonalLoop=1;jettySize=auto;html=1;entryX=1;entryY=0.25;entryDx=0;entryDy=0;strokeColor=default;align=center;verticalAlign=middle;fontFamily=Helvetica;fontSize=11;fontColor=default;labelBackgroundColor=default;endArrow=none;endFill=0;" edge="1" parent="1" source="DHCLG3KV0BrQ9XwCqPdC-88" target="DHCLG3KV0BrQ9XwCqPdC-1">
          <mxGeometry relative="1" as="geometry" />
        </mxCell>
        <mxCell id="DHCLG3KV0BrQ9XwCqPdC-90" style="edgeStyle=orthogonalEdgeStyle;shape=connector;rounded=0;orthogonalLoop=1;jettySize=auto;html=1;strokeColor=default;align=center;verticalAlign=middle;fontFamily=Helvetica;fontSize=11;fontColor=default;labelBackgroundColor=default;endArrow=none;endFill=0;entryX=0.5;entryY=1;entryDx=0;entryDy=0;" edge="1" parent="1" source="DHCLG3KV0BrQ9XwCqPdC-88" target="DHCLG3KV0BrQ9XwCqPdC-87">
          <mxGeometry relative="1" as="geometry">
            <mxPoint x="470" y="190" as="targetPoint" />
          </mxGeometry>
        </mxCell>
        <mxCell id="DHCLG3KV0BrQ9XwCqPdC-88" value="Relationship" style="shape=rhombus;perimeter=rhombusPerimeter;whiteSpace=wrap;html=1;align=center;fontFamily=Helvetica;fontSize=11;fontColor=default;labelBackgroundColor=default;" vertex="1" parent="1">
          <mxGeometry x="330" y="170" width="120" height="60" as="geometry" />
        </mxCell>
        <mxCell id="DHCLG3KV0BrQ9XwCqPdC-97" value="" style="edgeStyle=orthogonalEdgeStyle;shape=connector;rounded=0;orthogonalLoop=1;jettySize=auto;html=1;strokeColor=default;align=center;verticalAlign=middle;fontFamily=Helvetica;fontSize=11;fontColor=default;labelBackgroundColor=default;endArrow=none;endFill=0;" edge="1" parent="1" source="DHCLG3KV0BrQ9XwCqPdC-91" target="DHCLG3KV0BrQ9XwCqPdC-87">
          <mxGeometry relative="1" as="geometry" />
        </mxCell>
        <mxCell id="DHCLG3KV0BrQ9XwCqPdC-91" value="Cantidad" style="ellipse;whiteSpace=wrap;html=1;align=center;fontFamily=Helvetica;fontSize=11;fontColor=default;labelBackgroundColor=default;" vertex="1" parent="1">
          <mxGeometry x="360" y="10" width="100" height="40" as="geometry" />
        </mxCell>
        <mxCell id="DHCLG3KV0BrQ9XwCqPdC-100" style="edgeStyle=orthogonalEdgeStyle;shape=connector;rounded=0;orthogonalLoop=1;jettySize=auto;html=1;entryX=1;entryY=0;entryDx=0;entryDy=0;strokeColor=default;align=center;verticalAlign=middle;fontFamily=Helvetica;fontSize=11;fontColor=default;labelBackgroundColor=default;endArrow=none;endFill=0;" edge="1" parent="1" source="DHCLG3KV0BrQ9XwCqPdC-92" target="DHCLG3KV0BrQ9XwCqPdC-87">
          <mxGeometry relative="1" as="geometry" />
        </mxCell>
        <mxCell id="DHCLG3KV0BrQ9XwCqPdC-92" value="ID" style="ellipse;whiteSpace=wrap;html=1;align=center;fontStyle=4;fontFamily=Helvetica;fontSize=11;fontColor=default;labelBackgroundColor=default;" vertex="1" parent="1">
          <mxGeometry x="485" width="100" height="40" as="geometry" />
        </mxCell>
        <mxCell id="DHCLG3KV0BrQ9XwCqPdC-96" style="edgeStyle=orthogonalEdgeStyle;shape=connector;rounded=0;orthogonalLoop=1;jettySize=auto;html=1;strokeColor=default;align=center;verticalAlign=middle;fontFamily=Helvetica;fontSize=11;fontColor=default;labelBackgroundColor=default;endArrow=none;endFill=0;" edge="1" parent="1" source="DHCLG3KV0BrQ9XwCqPdC-94" target="DHCLG3KV0BrQ9XwCqPdC-87">
          <mxGeometry relative="1" as="geometry" />
        </mxCell>
        <mxCell id="DHCLG3KV0BrQ9XwCqPdC-94" value="Session_ID" style="ellipse;whiteSpace=wrap;html=1;align=center;fontFamily=Helvetica;fontSize=11;fontColor=default;labelBackgroundColor=default;" vertex="1" parent="1">
          <mxGeometry x="280" y="50" width="100" height="40" as="geometry" />
        </mxCell>
        <mxCell id="DHCLG3KV0BrQ9XwCqPdC-101" style="edgeStyle=orthogonalEdgeStyle;shape=connector;rounded=0;orthogonalLoop=1;jettySize=auto;html=1;entryX=1;entryY=0.5;entryDx=0;entryDy=0;strokeColor=default;align=center;verticalAlign=middle;fontFamily=Helvetica;fontSize=11;fontColor=default;labelBackgroundColor=default;endArrow=none;endFill=0;" edge="1" parent="1" source="DHCLG3KV0BrQ9XwCqPdC-95" target="DHCLG3KV0BrQ9XwCqPdC-87">
          <mxGeometry relative="1" as="geometry" />
        </mxCell>
        <mxCell id="DHCLG3KV0BrQ9XwCqPdC-95" value="Fecha" style="ellipse;whiteSpace=wrap;html=1;align=center;fontFamily=Helvetica;fontSize=11;fontColor=default;labelBackgroundColor=default;" vertex="1" parent="1">
          <mxGeometry x="566" y="60" width="100" height="40" as="geometry" />
        </mxCell>
        <mxCell id="DHCLG3KV0BrQ9XwCqPdC-102" value="1" style="text;html=1;align=center;verticalAlign=middle;resizable=0;points=[];autosize=1;strokeColor=none;fillColor=none;fontFamily=Helvetica;fontSize=11;fontColor=default;labelBackgroundColor=default;" vertex="1" parent="1">
          <mxGeometry x="275" y="238" width="30" height="30" as="geometry" />
        </mxCell>
        <mxCell id="DHCLG3KV0BrQ9XwCqPdC-103" value="N" style="text;html=1;align=center;verticalAlign=middle;resizable=0;points=[];autosize=1;strokeColor=none;fillColor=none;fontFamily=Helvetica;fontSize=11;fontColor=default;labelBackgroundColor=default;" vertex="1" parent="1">
          <mxGeometry x="420" y="110" width="30" height="30" as="geometry" />
        </mxCell>
      </root>
    </mxGraphModel>
  </diagram>
</mxfile>
